<?xml version="1.0" standalone="no"?>
<!DOCTYPE svg PUBLIC "-//W3C//DTD SVG 20010904//EN"
 "http://www.w3.org/TR/2001/REC-SVG-20010904/DTD/svg10.dtd">
<svg version="1.0" xmlns="http://www.w3.org/2000/svg"
 width="300.000000pt" height="300.000000pt" viewBox="0 0 300.000000 300.000000"
 preserveAspectRatio="xMidYMid meet">

<g transform="translate(0.000000,300.000000) scale(0.100000,-0.100000)"
fill="#000000" stroke="none">
<path d="M0 1500 l0 -1500 1500 0 1500 0 0 1500 0 1500 -1500 0 -1500 0 0
-1500z m613 368 c31 -60 54 -108 52 -108 -3 0 -26 36 -52 81 -29 51 -49 76
-53 67 -4 -7 -12 -87 -19 -178 -7 -91 -13 -166 -14 -166 -1 -1 -74 -19 -162
-40 -88 -21 -163 -40 -167 -44 -4 -3 60 -35 143 -70 82 -35 152 -66 154 -70 4
-7 -32 -237 -40 -255 -3 -5 -2 45 1 111 l6 122 -172 83 c-103 50 -166 86 -158
90 7 4 85 28 173 55 88 26 164 51 169 55 7 6 65 345 66 384 0 17 16 -9 73
-117z m155 -273 c29 -9 52 -19 52 -23 -1 -13 -29 -57 -30 -46 -1 26 -97 45
-129 25 -28 -18 -4 -38 54 -44 91 -9 124 -46 99 -112 -17 -42 -111 -58 -183
-29 -36 14 -38 17 -27 39 10 22 12 22 28 8 26 -23 110 -29 127 -9 23 28 6 44
-56 51 -77 9 -103 26 -103 68 0 42 17 65 55 76 43 13 56 13 113 -4z m1592 -32
l0 -28 -77 0 c-74 0 -78 -1 -81 -23 -4 -23 -1 -24 52 -20 54 3 56 2 56 -22 0
-24 -2 -25 -55 -22 l-55 4 0 -31 0 -31 80 0 c70 0 80 -2 80 -17 0 -16 -10 -18
-100 -15 l-100 3 -2 62 c-1 34 -3 83 -4 109 l-2 47 102 4 c55 1 102 4 104 5 1
1 2 -10 2 -25z m520 -1 c0 -26 -2 -27 -45 -24 l-45 4 0 -91 c0 -82 -2 -91 -19
-91 -15 0 -19 10 -25 53 -3 28 -6 69 -6 91 l0 38 -40 -4 c-36 -3 -40 -1 -40
19 0 22 4 22 108 26 59 1 108 4 110 5 1 1 2 -10 2 -26z m-1820 -6 c0 -22 -3
-23 -44 -19 l-44 5 -4 -73 c-2 -41 0 -84 4 -96 7 -21 4 -23 -27 -23 -31 0 -34
2 -27 23 4 12 6 55 4 96 l-4 73 -44 -5 c-41 -4 -44 -3 -44 19 0 24 1 24 115
24 114 0 115 0 115 -24z m136 15 c-5 -7 42 -116 92 -213 2 -5 -13 -8 -33 -8
-30 0 -36 3 -31 16 11 28 -22 54 -69 54 -47 0 -70 -19 -62 -50 4 -17 0 -20
-30 -20 -34 0 -35 1 -21 23 26 38 88 189 82 198 -3 5 13 9 36 9 23 0 39 -4 36
-9z m307 -2 c29 -16 37 -28 37 -60 0 -25 -22 -52 -49 -61 -9 -2 -3 -17 23 -51
l36 -47 -35 0 c-25 0 -35 4 -35 16 0 8 -12 31 -27 50 -37 45 -78 48 -86 5 -3
-15 -3 -38 0 -50 5 -18 1 -21 -26 -21 -27 0 -30 3 -23 18 4 9 6 61 3 115 l-6
97 83 0 c46 0 93 -5 105 -11z m357 -11 c0 -22 -3 -23 -75 -20 -75 4 -75 4 -75
-22 0 -25 3 -26 54 -26 49 0 54 -2 49 -20 -4 -17 -14 -20 -54 -20 -36 0 -49
-4 -49 -14 0 -8 -3 -21 -6 -30 -5 -14 5 -16 75 -16 45 0 81 -2 81 -4 0 -2 2
-10 5 -18 4 -10 -16 -13 -98 -13 l-104 0 -2 104 c-1 58 -4 108 -7 113 -3 4 42
8 100 8 103 0 106 -1 106 -22z m90 3 c0 -10 13 -46 28 -80 l28 -62 30 68 c16
37 27 74 26 81 -2 8 9 12 32 12 l35 0 -22 -47 c-13 -27 -36 -76 -52 -110 -44
-93 -60 -88 -121 39 -27 56 -50 105 -52 110 -2 4 12 8 32 8 28 0 36 -4 36 -19z
m516 11 c-2 -4 25 -39 60 -77 l65 -70 -3 78 -3 77 28 0 c22 0 28 -4 23 -16 -3
-9 -6 -58 -6 -110 0 -86 -2 -94 -19 -94 -11 0 -50 32 -88 71 l-68 71 -8 -54
c-4 -29 -6 -61 -3 -70 3 -13 -2 -18 -18 -18 -20 0 -21 5 -25 102 -1 57 -5 106
-7 110 -3 5 13 8 36 8 23 0 39 -3 36 -8z m-1604 -388 c48 -21 86 -39 84 -41
-1 -2 -54 12 -117 31 l-114 34 -142 -141 c-156 -155 -155 -155 -133 -37 l9 45
-2 -47 c-1 -27 1 -48 5 -48 3 0 64 61 134 135 l127 134 31 -13 c17 -8 70 -31
118 -52z"/>
<path d="M1137 1475 l-17 -35 36 0 c31 0 35 3 29 18 -4 9 -10 25 -12 35 -8 26
-17 21 -36 -18z"/>
<path d="M1370 1510 c0 -29 1 -30 48 -30 55 0 75 10 70 36 -3 16 -14 20 -61
22 l-57 3 0 -31z"/>
</g>
</svg>
